<?xml version="1.0" standalone="no"?>
<!DOCTYPE svg PUBLIC "-//W3C//DTD SVG 20010904//EN"
 "http://www.w3.org/TR/2001/REC-SVG-20010904/DTD/svg10.dtd">
<svg version="1.0" xmlns="http://www.w3.org/2000/svg"
 width="51.000000pt" height="75.000000pt" viewBox="0 0 51.000000 75.000000"
 preserveAspectRatio="xMidYMid meet">

<g transform="translate(0.000000,75.000000) scale(0.100000,-0.100000)"
fill="#000000" stroke="none">
<path d="M48 639 c-24 -13 -23 -36 2 -49 33 -18 141 -8 154 13 9 15 7 21 -8
33 -23 16 -122 19 -148 3z"/>
<path d="M326 635 c-35 -36 4 -58 94 -53 63 4 89 29 56 54 -27 19 -130 19
-150 -1z"/>
<path d="M48 439 c-39 -22 -12 -55 95 -114 93 -51 148 -48 259 15 107 60 116
97 26 107 -58 6 -98 -10 -98 -40 0 -16 -12 -32 -36 -50 l-37 -26 -33 26 c-22
16 -34 34 -34 49 0 17 -8 28 -26 34 -33 13 -94 12 -116 -1z"/>
<path d="M320 225 c-12 -23 -22 -30 -45 -30 -26 0 -33 -7 -57 -55 l-28 -55 6
51 c8 70 -9 80 -53 29 -22 -26 -33 -33 -33 -22 0 10 -7 17 -15 17 -9 0 -15 -9
-15 -22 0 -13 -4 -30 -10 -38 -15 -24 -25 16 -12 56 9 30 8 34 -9 34 -15 0
-19 -8 -20 -32 -3 -76 4 -87 51 -80 22 3 36 15 55 48 14 24 28 44 32 44 3 0 3
-18 -1 -40 -5 -32 -3 -42 10 -47 8 -3 20 -1 26 5 8 8 15 7 25 -4 16 -16 47 -5
70 25 11 14 12 14 13 -5 0 -21 25 -63 32 -54 3 3 2 50 -2 105 -6 96 -6 99 -20
70z m-23 -51 c3 -9 -1 -31 -10 -50 -17 -34 -36 -45 -38 -21 -6 59 31 114 48
71z"/>
<path d="M45 219 c-4 -6 -5 -13 -2 -16 7 -7 27 6 27 18 0 12 -17 12 -25 -2z"/>
<path d="M370 214 c0 -8 5 -12 10 -9 6 3 10 10 10 16 0 5 -4 9 -10 9 -5 0 -10
-7 -10 -16z"/>
<path d="M427 182 c-9 -10 -20 -33 -23 -50 -11 -54 -26 -49 -23 7 3 41 1 51
-12 51 -11 0 -16 -12 -18 -46 -2 -55 12 -78 40 -63 13 6 25 6 37 0 20 -11 62
10 62 31 0 6 -8 4 -18 -5 -22 -20 -42 -6 -42 28 0 24 20 59 20 36 0 -11 3 -12
11 -4 11 11 5 33 -10 33 -4 0 -15 -8 -24 -18z"/>
</g>
</svg>
